<svg width="93" height="93" viewBox="0 0 93 93" fill="none" xmlns="http://www.w3.org/2000/svg">
    <path d="M46.0029 61.3672C43.4701 61.3672 41.4194 63.4178 41.4194 65.9506C41.4194 68.4834 43.4701 70.534 46.0029 70.534C48.5357 70.534 50.5863 68.4834 50.5863 65.9506C50.5863 63.4178 48.5357 61.3672 46.0029 61.3672Z"
          fill="#3aafa9"/>
    <path d="M46.0029 80.4883C43.4701 80.4883 41.4194 82.5389 41.4194 85.0717C41.4194 87.6045 43.4701 89.6551 46.0029 89.6551C48.5357 89.6551 50.5863 87.6045 50.5863 85.0717C50.5863 82.5389 48.5357 80.4883 46.0029 80.4883Z"
          fill="#3aafa9"/>
    <path d="M46.0029 4C43.4701 4 41.4194 6.05062 41.4194 8.58341C41.4194 11.1162 43.4701 13.1668 46.0029 13.1668C48.5357 13.1668 50.5863 11.1162 50.5863 8.58341C50.5863 6.05062 48.5357 4 46.0029 4Z"
          fill="#3aafa9"/>
    <path d="M46.0029 23.1191C43.4701 23.1191 41.4194 25.1698 41.4194 27.7026C41.4194 30.2353 43.4701 32.286 46.0029 32.286C48.5357 32.286 50.5863 30.2353 50.5863 27.7026C50.5863 25.1698 48.5357 23.1191 46.0029 23.1191Z"
          fill="#3aafa9"/>
    <path d="M5.58343 42.248C3.05064 42.248 1 44.2987 1 46.8315C1 49.3643 3.05064 51.4149 5.58343 51.4149C8.11623 51.4149 10.1669 49.3643 10.1669 46.8315C10.1669 44.2987 8.11623 42.248 5.58343 42.248Z"
          fill="#3aafa9"/>
    <path d="M5.58343 61.3672C3.05064 61.3672 1 63.4178 1 65.9506C1 68.4834 3.05064 70.534 5.58343 70.534C8.11623 70.534 10.1669 68.4834 10.1669 65.9506C10.1669 63.4178 8.11623 61.3672 5.58343 61.3672Z"
          fill="#3aafa9"/>
    <path d="M5.58343 80.4883C3.05064 80.4883 1 82.5389 1 85.0717C1 87.6045 3.05064 89.6551 5.58343 89.6551C8.11623 89.6551 10.1669 87.6045 10.1669 85.0717C10.1669 82.5389 8.11623 80.4883 5.58343 80.4883Z"
          fill="#3aafa9"/>
    <path d="M5.58343 23.1191C3.05064 23.1191 1 25.1698 1 27.7026C1 30.2353 3.05064 32.286 5.58343 32.286C8.11623 32.286 10.1669 30.2353 10.1669 27.7026C10.1669 25.1698 8.11623 23.1191 5.58343 23.1191Z"
          fill="#3aafa9"/>
    <path d="M25.7904 51.4051C28.3218 51.4051 30.3739 49.353 30.3739 46.8217C30.3739 44.2903 28.3218 42.2383 25.7904 42.2383C23.2591 42.2383 21.207 44.2903 21.207 46.8217C21.207 49.353 23.2591 51.4051 25.7904 51.4051Z"
          fill="#3aafa9"/>
    <path d="M25.7904 70.534C28.3218 70.534 30.3739 68.482 30.3739 65.9506C30.3739 63.4193 28.3218 61.3672 25.7904 61.3672C23.2591 61.3672 21.207 63.4193 21.207 65.9506C21.207 68.482 23.2591 70.534 25.7904 70.534Z"
          fill="#3aafa9"/>
    <path d="M25.7904 89.6551C28.3218 89.6551 30.3739 87.603 30.3739 85.0717C30.3739 82.5403 28.3218 80.4883 25.7904 80.4883C23.2591 80.4883 21.207 82.5403 21.207 85.0717C21.207 87.603 23.2591 89.6551 25.7904 89.6551Z"
          fill="#3aafa9"/>
    <path d="M25.7904 13.1668C28.3218 13.1668 30.3739 11.1148 30.3739 8.58341C30.3739 6.05206 28.3218 4 25.7904 4C23.2591 4 21.207 6.05206 21.207 8.58341C21.207 11.1148 23.2591 13.1668 25.7904 13.1668Z"
          fill="#3aafa9"/>
    <path d="M25.7904 32.286C28.3218 32.286 30.3739 30.2339 30.3739 27.7026C30.3739 25.1712 28.3218 23.1191 25.7904 23.1191C23.2591 23.1191 21.207 25.1712 21.207 27.7026C21.207 30.2339 23.2591 32.286 25.7904 32.286Z"
          fill="#3aafa9"/>
    <path d="M86.4164 42.248C83.8836 42.248 81.833 44.2987 81.833 46.8315C81.833 49.3643 83.8836 51.4149 86.4164 51.4149C88.9492 51.4149 90.9998 49.3643 90.9998 46.8315C90.9998 44.2987 88.9492 42.248 86.4164 42.248Z"
          fill="#3aafa9"/>
    <path d="M86.4164 61.3672C83.8836 61.3672 81.833 63.4178 81.833 65.9506C81.833 68.4834 83.8836 70.534 86.4164 70.534C88.9492 70.534 90.9998 68.4834 90.9998 65.9506C90.9998 63.4178 88.9492 61.3672 86.4164 61.3672Z"
          fill="#3aafa9"/>
    <path d="M86.4164 13.1668C88.9492 13.1668 90.9998 11.1162 90.9998 8.58341C90.9998 6.05062 88.9492 4 86.4164 4C83.8836 4 81.833 6.05062 81.833 8.58341C81.833 11.1162 83.8836 13.1668 86.4164 13.1668Z"
          fill="#3aafa9"/>
    <path d="M86.4164 23.1191C83.8836 23.1191 81.833 25.1698 81.833 27.7026C81.833 30.2353 83.8836 32.286 86.4164 32.286C88.9492 32.286 90.9998 30.2353 90.9998 27.7026C90.9998 25.1698 88.9492 23.1191 86.4164 23.1191Z"
          fill="#3aafa9"/>
    <path d="M66.2094 51.4051C68.7408 51.4051 70.7928 49.353 70.7928 46.8217C70.7928 44.2903 68.7408 42.2383 66.2094 42.2383C63.6781 42.2383 61.626 44.2903 61.626 46.8217C61.626 49.353 63.6781 51.4051 66.2094 51.4051Z"
          fill="#3aafa9"/>
    <path d="M66.2094 70.534C68.7408 70.534 70.7928 68.482 70.7928 65.9506C70.7928 63.4193 68.7408 61.3672 66.2094 61.3672C63.6781 61.3672 61.626 63.4193 61.626 65.9506C61.626 68.482 63.6781 70.534 66.2094 70.534Z"
          fill="#3aafa9"/>
    <path d="M66.2094 89.6551C68.7408 89.6551 70.7928 87.603 70.7928 85.0717C70.7928 82.5403 68.7408 80.4883 66.2094 80.4883C63.6781 80.4883 61.626 82.5403 61.626 85.0717C61.626 87.603 63.6781 89.6551 66.2094 89.6551Z"
          fill="#3aafa9"/>
    <path d="M66.2094 13.1668C68.7408 13.1668 70.7928 11.1148 70.7928 8.58341C70.7928 6.05206 68.7408 4 66.2094 4C63.6781 4 61.626 6.05206 61.626 8.58341C61.626 11.1148 63.6781 13.1668 66.2094 13.1668Z"
          fill="#3aafa9"/>
    <path d="M66.2094 32.286C68.7408 32.286 70.7928 30.2339 70.7928 27.7026C70.7928 25.1712 68.7408 23.1191 66.2094 23.1191C63.6781 23.1191 61.626 25.1712 61.626 27.7026C61.626 30.2339 63.6781 32.286 66.2094 32.286Z"
          fill="#3aafa9"/>
</svg>
