<svg width="93" height="93" viewBox="0 0 93 93" fill="none" xmlns="http://www.w3.org/2000/svg">
    <path d="M14.3393 44.3066C10.1593 41.198 6.55111 38.5112 6.55111 33.2765C6.55111 28.0418 10.1593 25.3607 14.3393 22.252C19.0356 18.7548 24.359 14.7913 24.359 6.77555C24.359 5.24345 23.1156 4 21.5835 4C20.0514 4 18.8079 5.24345 18.8079 6.77555C18.8079 12.0047 15.1998 14.6914 11.0198 17.8C6.32354 21.2972 1 25.2607 1 33.2765C1 41.2923 6.32354 45.2614 11.0198 48.7586C15.1998 51.8672 18.8079 54.5539 18.8079 59.7886C18.8079 65.0233 15.1998 67.7045 11.0198 70.8187C6.32354 74.3159 1 78.2794 1 86.3007C1 87.8328 2.24345 89.0762 3.77555 89.0762C5.30766 89.0762 6.55111 87.8328 6.55111 86.3007C6.55111 81.066 10.1593 78.3848 14.3393 75.2707C19.0356 71.7735 24.359 67.81 24.359 59.7886C24.359 51.7673 19.0356 47.8038 14.3393 44.3066Z"
          fill="#3aafa9"/>
    <path d="M36.5493 44.3554C32.3693 41.2468 28.7611 38.5601 28.7611 33.3254C28.7611 28.0907 32.3693 25.4095 36.5493 22.3009C41.2455 18.8037 46.569 14.8402 46.569 6.82438C46.569 5.29228 45.3256 4.04883 43.7934 4.04883C42.2613 4.04883 41.0179 5.29228 41.0179 6.82438C41.0179 12.0535 37.4097 14.7403 33.2352 17.8489C28.539 21.3461 23.21 25.3096 23.21 33.3254C23.21 41.3412 28.5335 45.3102 33.2297 48.8074C37.4097 51.916 41.0179 54.6027 41.0179 59.8374C41.0179 65.0721 37.4097 67.7533 33.2297 70.8675C28.5335 74.3647 23.21 78.3282 23.21 86.3495C23.21 87.8816 24.4534 89.1251 25.9855 89.1251C27.5176 89.1251 28.7611 87.8816 28.7611 86.3495C28.7611 81.1148 32.3693 78.4336 36.5493 75.3195C41.2455 71.8223 46.569 67.8588 46.569 59.8374C46.569 51.8161 41.2455 47.8526 36.5493 44.3554Z"
          fill="#3aafa9"/>
    <path d="M58.7651 44.4003C54.5851 41.2917 50.9769 38.605 50.9769 33.3703C50.9769 28.1356 54.5851 25.4544 58.7651 22.3458C63.4613 18.8486 68.7848 14.8851 68.7848 6.8693C68.7848 5.3372 67.5414 4.09375 66.0093 4.09375C64.4772 4.09375 63.2337 5.3372 63.2337 6.8693C63.2337 12.0984 59.6255 14.7852 55.4455 17.8938C50.7493 21.391 45.4258 25.3545 45.4258 33.3703C45.4258 41.3861 50.7493 45.3551 55.4455 48.8523C59.6255 51.9609 63.2337 54.6477 63.2337 59.8824C63.2337 65.1171 59.6255 67.7982 55.4455 70.9124C50.7493 74.4096 45.4258 78.3731 45.4258 86.3944C45.4258 87.9265 46.6692 89.17 48.2013 89.17C49.7334 89.17 50.9769 87.9265 50.9769 86.3944C50.9769 81.1597 54.5851 78.4786 58.7651 75.3644C63.4613 71.8672 68.7848 67.9037 68.7848 59.8824C68.7848 51.861 63.4613 47.8975 58.7651 44.4003Z"
          fill="#3aafa9"/>
    <path d="M80.9804 44.4511C76.8004 41.3425 73.1922 38.6558 73.1922 33.4211C73.1922 28.1864 76.8004 25.5052 80.9804 22.3966C85.6766 18.8994 91.0002 14.9359 91.0002 6.92008C91.0002 5.38798 89.7567 4.14453 88.2246 4.14453C86.6925 4.14453 85.449 5.38798 85.449 6.92008C85.449 12.1492 81.8408 14.836 77.6664 17.9446C72.9701 21.4418 67.6411 25.4053 67.6411 33.4266C67.6411 41.448 72.9646 45.4115 77.6608 48.9086C81.8408 52.0173 85.449 54.704 85.449 59.9387C85.449 65.1734 81.8408 67.8546 77.6608 70.9687C72.9646 74.4659 67.6411 78.4294 67.6411 86.4508C67.6411 87.9829 68.8846 89.2263 70.4167 89.2263C71.9488 89.2263 73.1922 87.9829 73.1922 86.4508C73.1922 81.2161 76.8004 78.5349 80.9804 75.4207C85.6766 71.9235 91.0002 67.96 91.0002 59.9387C91.0002 51.9173 85.6766 47.9539 80.9804 44.4567V44.4511Z"
          fill="#3aafa9"/>
</svg>
