<svg width="93" height="93" viewBox="0 0 93 93" fill="none" xmlns="http://www.w3.org/2000/svg">
    <path d="M88.1407 48.8651C89.719 48.8651 91 47.5841 91 46.0058C91 44.4274 89.719 43.1465 88.1407 43.1465H73.4781V24.2463H88.1407C89.719 24.2463 91 22.9653 91 21.387C91 19.8086 89.719 18.5277 88.1407 18.5277H73.4781V3.85933C73.4781 2.28098 72.1972 1 70.6188 1C69.0405 1 67.7595 2.28098 67.7595 3.85933V18.5277H48.8593V3.85933C48.8593 2.28098 47.5784 1 46 1C44.4217 1 43.1407 2.28098 43.1407 3.85933V18.5277H24.2405V3.85933C24.2405 2.28098 22.9595 1 21.3812 1C19.8029 1 18.5219 2.28098 18.5219 3.85933V18.5277H3.85932C2.28098 18.5277 1 19.8086 1 21.387C1 22.9653 2.28098 24.2463 3.85932 24.2463H18.5219V43.1465H3.85932C2.28098 43.1465 1 44.4274 1 46.0058C1 47.5841 2.28098 48.8651 3.85932 48.8651H18.5219V67.7653H3.85932C2.28098 67.7653 1 69.0462 1 70.6246C1 72.2029 2.28098 73.4839 3.85932 73.4839H18.5219V88.1465C18.5219 89.7249 19.8029 91.0059 21.3812 91.0059C22.9595 91.0059 24.2405 89.7249 24.2405 88.1465V73.4839H43.1407V88.1465C43.1407 89.7249 44.4217 91.0059 46 91.0059C47.5784 91.0059 48.8593 89.7249 48.8593 88.1465V73.4839H67.7595V88.1465C67.7595 89.7249 69.0405 91.0059 70.6188 91.0059C72.1972 91.0059 73.4781 89.7249 73.4781 88.1465V73.4839H88.1407C89.719 73.4839 91 72.2029 91 70.6246C91 69.0462 89.719 67.7653 88.1407 67.7653H73.4781V48.8651H88.1407ZM67.7595 24.2463V43.1465H48.8593V24.2463H67.7595ZM24.2348 24.2463H43.135V43.1465H24.2348V24.2463ZM24.2348 67.771V48.8708H43.135V67.771H24.2348ZM67.7595 67.771H48.8593V48.8708H67.7595V67.771Z"
          fill="#3aafa9"/>
</svg>
