<svg width="93" height="93" viewBox="0 0 93 93" fill="none" xmlns="http://www.w3.org/2000/svg">
    <path d="M45.9999 55.4637C50.6746 55.4637 54.4642 51.6741 54.4642 46.9994C54.4642 42.3247 50.6746 38.5352 45.9999 38.5352C41.3252 38.5352 37.5356 42.3247 37.5356 46.9994C37.5356 51.6741 41.3252 55.4637 45.9999 55.4637Z"
          stroke="#3aafa9" stroke-width="5.57015" stroke-linecap="round" stroke-linejoin="round"/>
    <path d="M45.9998 72.3931C60.0239 72.3931 71.3927 61.0244 71.3927 47.0003C71.3927 32.9762 60.0239 21.6074 45.9998 21.6074C31.9757 21.6074 20.6069 32.9762 20.6069 47.0003C20.6069 61.0244 31.9757 72.3931 45.9998 72.3931Z"
          stroke="#3aafa9" stroke-width="5.57015" stroke-linecap="round" stroke-linejoin="round"/>
    <path d="M45.9997 89.3206C69.3731 89.3206 88.3211 70.3727 88.3211 46.9992C88.3211 23.6257 69.3731 4.67773 45.9997 4.67773C22.6262 4.67773 3.67822 23.6257 3.67822 46.9992C3.67822 70.3727 22.6262 89.3206 45.9997 89.3206Z"
          stroke="#3aafa9" stroke-width="5.57015" stroke-linecap="round" stroke-linejoin="round"/>
</svg>
