<svg width="93" height="93" viewBox="0 0 93 93" fill="none" xmlns="http://www.w3.org/2000/svg">
    <path d="M88.1301 2.05038C86.5459 2.05038 85.2602 3.3361 85.2602 4.92029V77.6034C85.2602 81.8279 81.8221 85.2661 77.5976 85.2661C73.3731 85.2661 69.935 81.8279 69.935 77.6034V14.4024C69.935 7.00958 63.9196 1 56.5325 1C49.1454 1 43.1301 7.01532 43.1301 14.4024V77.6034C43.1301 81.8279 39.692 85.2661 35.4675 85.2661C31.243 85.2661 27.8049 81.8279 27.8049 77.6034V14.4024C27.8049 7.00958 21.7896 1 14.4024 1C7.01533 1 1 7.01532 1 14.4024V87.0856C1 88.6698 2.28571 89.9555 3.8699 89.9555C5.45408 89.9555 6.7398 88.6698 6.7398 87.0856V14.4024C6.7398 10.1779 10.178 6.73981 14.4024 6.73981C18.6269 6.73981 22.0651 10.1779 22.0651 14.4024V77.6034C22.0651 84.9963 28.0804 91.0059 35.4675 91.0059C42.8546 91.0059 48.8699 84.9906 48.8699 77.6034V14.4024C48.8699 10.1779 52.308 6.73981 56.5325 6.73981C60.757 6.73981 64.1952 10.1779 64.1952 14.4024V77.6034C64.1952 84.9963 70.2105 91.0059 77.5976 91.0059C84.9847 91.0059 91 84.9906 91 77.6034V4.92029C91 3.3361 89.7143 2.05038 88.1301 2.05038Z"
          fill="#3aafa9"/>
</svg>
