<svg width="93" height="93" viewBox="0 0 93 93" fill="none" xmlns="http://www.w3.org/2000/svg">
    <path d="M46.0024 22.1914C43.4539 22.1914 41.3906 24.2547 41.3906 26.8033C41.3906 29.3518 43.4539 31.4151 46.0024 31.4151C48.5509 31.4151 50.6142 29.3518 50.6142 26.8033C50.6142 24.2547 48.5509 22.1914 46.0024 22.1914Z"
          fill="#3aafa9"/>
    <path d="M46.0024 2C43.4539 2 41.3906 4.06334 41.3906 6.61185C41.3906 9.16035 43.4539 11.2237 46.0024 11.2237C48.5509 11.2237 50.6142 9.16035 50.6142 6.61185C50.6142 4.06334 48.5509 2 46.0024 2Z"
          fill="#3aafa9"/>
    <path d="M60.2783 37.3331C62.8254 37.3331 64.8902 35.2683 64.8902 32.7212C64.8902 30.1742 62.8254 28.1094 60.2783 28.1094C57.7313 28.1094 55.6665 30.1742 55.6665 32.7212C55.6665 35.2683 57.7313 37.3331 60.2783 37.3331Z"
          fill="#3aafa9"/>
    <path d="M74.5596 23.0499C77.1066 23.0499 79.1714 20.9851 79.1714 18.438C79.1714 15.891 77.1066 13.8262 74.5596 13.8262C72.0125 13.8262 69.9478 15.891 69.9478 18.438C69.9478 20.9851 72.0125 23.0499 74.5596 23.0499Z"
          fill="#3aafa9"/>
    <path d="M66.1948 51.6085C68.7419 51.6085 70.8067 49.5437 70.8067 46.9966C70.8067 44.4496 68.7419 42.3848 66.1948 42.3848C63.6478 42.3848 61.583 44.4496 61.583 46.9966C61.583 49.5437 63.6478 51.6085 66.1948 51.6085Z"
          fill="#3aafa9"/>
    <path d="M86.3882 42.3945C83.8397 42.3945 81.7764 44.4579 81.7764 47.0064C81.7764 49.5549 83.8397 51.6182 86.3882 51.6182C88.9367 51.6182 91 49.5549 91 47.0064C91 44.4579 88.9367 42.3945 86.3882 42.3945Z"
          fill="#3aafa9"/>
    <path d="M60.2783 65.8917C62.8254 65.8917 64.8902 63.8269 64.8902 61.2798C64.8902 58.7328 62.8254 56.668 60.2783 56.668C57.7313 56.668 55.6665 58.7328 55.6665 61.2798C55.6665 63.8269 57.7313 65.8917 60.2783 65.8917Z"
          fill="#3aafa9"/>
    <path d="M74.5601 80.1749C77.1071 80.1749 79.1719 78.1101 79.1719 75.563C79.1719 73.016 77.1071 70.9512 74.5601 70.9512C72.013 70.9512 69.9482 73.016 69.9482 75.563C69.9482 78.1101 72.013 80.1749 74.5601 80.1749Z"
          fill="#3aafa9"/>
    <path d="M46.0024 62.5859C43.4539 62.5859 41.3906 64.6493 41.3906 67.1978C41.3906 69.7463 43.4539 71.8096 46.0024 71.8096C48.5509 71.8096 50.6142 69.7463 50.6142 67.1978C50.6142 64.6493 48.5509 62.5859 46.0024 62.5859Z"
          fill="#3aafa9"/>
    <path d="M46.0024 82.7773C43.4539 82.7773 41.3906 84.8407 41.3906 87.3892C41.3906 89.9377 43.4539 92.001 46.0024 92.001C48.5509 92.001 50.6142 89.9377 50.6142 87.3892C50.6142 84.8407 48.5509 82.7773 46.0024 82.7773Z"
          fill="#3aafa9"/>
    <path d="M28.4593 58.0189C26.6581 59.8201 26.6581 62.7367 28.4593 64.5379C30.2606 66.3392 33.1771 66.3392 34.9784 64.5379C36.7796 62.7367 36.7796 59.8201 34.9784 58.0189C33.1771 56.2177 30.2606 56.2177 28.4593 58.0189Z"
          fill="#3aafa9"/>
    <path d="M14.1825 72.2982C12.3812 74.0994 12.3812 77.016 14.1825 78.8172C15.9837 80.6185 18.9002 80.6185 20.7014 78.8172C22.5027 77.016 22.5027 74.0994 20.7014 72.2982C18.9002 70.497 15.9837 70.497 14.1825 72.2982Z"
          fill="#3aafa9"/>
    <path d="M30.416 46.9966C30.416 44.4481 28.3527 42.3848 25.8042 42.3848C23.2557 42.3848 21.1924 44.4481 21.1924 46.9966C21.1924 49.5451 23.2557 51.6085 25.8042 51.6085C28.3527 51.6085 30.416 49.5451 30.416 46.9966Z"
          fill="#3aafa9"/>
    <path d="M10.2237 46.9966C10.2237 44.4481 8.16032 42.3848 5.61183 42.3848C3.06334 42.3848 1 44.4481 1 46.9966C1 49.5451 3.06334 51.6085 5.61183 51.6085C8.16032 51.6085 10.2237 49.5451 10.2237 46.9966Z"
          fill="#3aafa9"/>
    <path d="M28.4593 29.4603C26.6581 31.2615 26.6581 34.1781 28.4593 35.9794C30.2606 37.7806 33.1771 37.7806 34.9784 35.9794C36.7796 34.1781 36.7796 31.2615 34.9784 29.4603C33.1771 27.6591 30.2606 27.6591 28.4593 29.4603Z"
          fill="#3aafa9"/>
    <path d="M20.7014 21.702C22.5027 19.9008 22.5027 16.9842 20.7014 15.183C18.9002 13.3817 15.9837 13.3817 14.1825 15.183C12.3812 16.9842 12.3812 19.9008 14.1825 21.702C15.9837 23.5033 18.9002 23.5033 20.7014 21.702Z"
          fill="#3aafa9"/>
    <path d="M32.3071 13.9469C34.6604 12.971 35.7757 10.2775 34.7998 7.92413C33.8239 5.5708 31.1305 4.45548 28.7772 5.43139C26.4239 6.40729 25.3085 9.10079 26.2844 11.4541C27.2603 13.8074 29.9538 14.9228 32.3071 13.9469Z"
          fill="#3aafa9"/>
    <path d="M59.6934 13.9461C62.0467 14.922 64.7402 13.8011 65.7161 11.4534C66.692 9.10003 65.571 6.40653 63.2233 5.43063C60.87 4.45472 58.1765 5.57562 57.2006 7.92337C56.2247 10.2767 57.3456 12.9702 59.6934 13.9461Z"
          fill="#3aafa9"/>
    <path d="M79.0559 33.3057C80.0318 35.659 82.7253 36.7743 85.0786 35.7984C87.4319 34.8225 88.5472 32.129 87.5713 29.7757C86.5954 27.4224 83.902 26.307 81.5487 27.283C79.1954 28.2589 78.08 30.9524 79.0559 33.3057Z"
          fill="#3aafa9"/>
    <path d="M85.0778 58.1963C82.7245 57.2203 80.031 58.3412 79.0551 60.689C78.0792 63.0423 79.2002 65.7358 81.5479 66.7117C83.9012 67.6876 86.5947 66.5667 87.5706 64.219C88.5465 61.8657 87.4256 59.1722 85.0778 58.1963Z"
          fill="#3aafa9"/>
    <path d="M59.6936 80.0583C57.3403 81.0342 56.225 83.7277 57.2009 86.0811C58.1768 88.4344 60.8703 89.5497 63.2236 88.5738C65.5769 87.5979 66.6922 84.9044 65.7163 82.5511C64.7404 80.1978 62.0469 79.0824 59.6936 80.0583Z"
          fill="#3aafa9"/>
    <path d="M32.3064 80.0576C29.9531 79.0817 27.2595 80.2026 26.2836 82.5503C25.3077 84.8981 26.4287 87.5971 28.7764 88.573C31.1297 89.5489 33.8287 88.4281 34.7991 86.0803C35.775 83.727 34.6541 81.0335 32.3064 80.0576Z"
          fill="#3aafa9"/>
    <path d="M12.9458 60.6956C11.9699 58.3423 9.27643 57.227 6.92312 58.2029C4.56981 59.1788 3.45451 61.8723 4.43041 64.2256C5.40631 66.5789 8.09975 67.6942 10.4531 66.7183C12.8064 65.7424 13.9217 63.0489 12.9458 60.6956Z"
          fill="#3aafa9"/>
    <path d="M6.92198 35.8055C9.27529 36.7814 11.9744 35.6605 12.9447 33.3127C13.915 30.965 12.7997 28.2659 10.4519 27.29C8.09861 26.3141 5.39959 27.435 4.42927 29.7827C3.45895 32.1305 4.57424 34.8296 6.92198 35.8055Z"
          fill="#3aafa9"/>
</svg>
