<svg width="93" height="93" viewBox="0 0 93 93" fill="none" xmlns="http://www.w3.org/2000/svg">
    <path d="M85.6403 40.0274L70.8123 38.0997C70.8123 38.0997 70.7831 38.0413 70.8123 37.9974L81.6534 27.7454C83.9657 25.5597 84.2724 22.2397 82.4031 19.6694C80.5338 17.0991 77.2819 16.364 74.4877 17.8877L61.3586 25.0486C61.3586 25.0486 61.3002 25.0194 61.2953 24.9658L64.0409 10.2985C64.6251 7.17326 62.9212 4.306 59.8982 3.32267C56.8752 2.33933 53.8132 3.65856 52.4501 6.53068L46.0535 20.0102L46.0389 20.0394C46.0389 20.0394 45.9708 20.0491 45.9416 20.0102L39.545 6.53068C38.182 3.65856 35.12 2.33933 32.0969 3.32267C29.0739 4.306 27.3701 7.17326 27.9591 10.2985L30.7095 24.995C30.7095 24.995 30.6609 25.0437 30.6122 25.0291L17.5123 17.8829C14.7181 16.3592 11.4662 17.0942 9.59693 19.6645C7.72761 22.2349 8.03429 25.5597 10.3466 27.7406L21.212 38.0169C21.212 38.0169 21.2023 38.0851 21.1536 38.1045L6.35482 40.0225C3.20035 40.4314 1 42.9385 1 46.1173C1 49.2961 3.20035 51.8031 6.35482 52.212L21.1828 54.1397C21.1828 54.1397 21.212 54.1982 21.1828 54.242L10.3417 64.494C8.02942 66.6797 7.72274 69.9997 9.59206 72.57C11.4614 75.1403 14.7132 75.8754 17.5075 74.3517L30.6365 67.1909C30.6365 67.1909 30.6949 67.2201 30.6998 67.2736L27.9542 81.9409C27.3701 85.0662 29.069 87.9334 32.0921 88.9168C32.7638 89.1358 33.4308 89.238 34.0879 89.238C36.3905 89.238 38.4838 87.9432 39.545 85.7087L45.9562 72.2C45.9562 72.2 46.0243 72.1903 46.0535 72.2292L52.4501 85.7087C53.8132 88.5809 56.8752 89.9001 59.8982 88.9168C62.9212 87.9334 64.6251 85.0662 64.0409 81.9409L61.2905 67.2444C61.2905 67.2444 61.3391 67.1957 61.3878 67.2103L74.4877 74.3566C77.277 75.8802 80.5338 75.1452 82.4031 72.5749C84.2724 70.0046 83.9608 66.6797 81.6534 64.4989L70.788 54.2225C70.788 54.2225 70.7977 54.1543 70.8464 54.1397L85.6452 52.2217C88.7997 51.8128 91 49.3058 91 46.127C91 42.9482 88.7997 40.4412 85.6452 40.0323L85.6403 40.0274ZM85.0123 47.3878L70.2135 49.3058C68.3053 49.5541 66.7524 50.8441 66.1585 52.6745C65.5646 54.5048 66.0611 56.4618 67.4582 57.781L78.2993 68.033C79.0101 68.7048 78.7034 69.3717 78.4551 69.7125C78.2068 70.0532 77.6665 70.5498 76.8097 70.0825L63.7099 62.9362C62.0207 62.0162 60.0053 62.1427 58.4524 63.277C56.8995 64.4112 56.1498 66.2854 56.5052 68.1742L59.2508 82.8415C59.4309 83.8005 58.7883 84.1607 58.3891 84.2922C57.9899 84.4236 57.2597 84.5063 56.8411 83.6252L50.4445 70.1457C49.6218 68.4079 47.9131 67.3272 45.9903 67.3272C44.0674 67.3272 42.3587 68.4079 41.536 70.1457L35.1394 83.6252C34.7208 84.5063 33.9906 84.4236 33.5914 84.2922C33.1922 84.1607 32.5497 83.8005 32.7298 82.8415L35.4753 68.1742C35.8307 66.2854 35.081 64.4064 33.5281 63.277C32.6616 62.649 31.6539 62.3277 30.6365 62.3277C29.8284 62.3277 29.0155 62.5273 28.2707 62.9362L15.1708 70.0825C14.314 70.5498 13.7737 70.0532 13.5254 69.7125C13.2772 69.3717 12.9705 68.7048 13.6812 68.033L24.5223 57.781C25.9194 56.4618 26.4208 54.5048 25.8269 52.6745C25.233 50.8441 23.6801 49.5541 21.7719 49.3058L6.97306 47.3878C6.00433 47.2613 5.85829 46.5408 5.85829 46.1221C5.85829 45.7035 6.00433 44.983 6.97306 44.8565L21.7719 42.9385C23.6801 42.6902 25.233 41.4002 25.8269 39.5698C26.4208 37.7394 25.9243 35.7825 24.5223 34.4633L13.6812 24.2113C12.9705 23.5395 13.2772 22.8726 13.5254 22.5318C13.7737 22.191 14.314 21.6945 15.1708 22.1618L28.2707 29.3081C29.9599 30.2281 31.9752 30.1015 33.533 28.9673C35.0908 27.8379 35.8356 25.9589 35.4802 24.0701L32.7346 9.4028C32.5545 8.44381 33.1971 8.08357 33.5963 7.95214C33.9955 7.8207 34.7257 7.73795 35.1443 8.61905L41.5409 22.0986C42.3636 23.8364 44.0723 24.9171 45.9951 24.9171C47.918 24.9171 49.6267 23.8364 50.4494 22.0986L56.846 8.61905C57.2646 7.73795 57.9948 7.8207 58.394 7.95214C58.7932 8.08357 59.4357 8.44381 59.2556 9.4028L56.5101 24.0701C56.1547 25.9589 56.9044 27.8379 58.4573 28.9673C60.015 30.0967 62.0304 30.2281 63.7147 29.3081L76.8146 22.1618C77.6714 21.6945 78.2117 22.191 78.46 22.5318C78.7083 22.8726 79.0149 23.5395 78.3042 24.2113L67.4582 34.4633C66.0611 35.7825 65.5597 37.7394 66.1585 39.5698C66.7524 41.4002 68.3053 42.6902 70.2135 42.9385L85.0123 44.8565C85.9811 44.983 86.1222 45.7035 86.1222 46.1221C86.1222 46.5408 85.9762 47.2613 85.0075 47.3878H85.0123Z"
          fill="#3aafa9"/>
</svg>
